<svg fill="#093db5" width="52" height="52" viewBox="0 0 64 64" xmlns="http://www.w3.org/2000/svg"><path d="M47.4008 25.8H41.8008H39.8008V23.8V17.6V15.6H41.8008H46.0008C47.1008 15.6 48.0008 14.8 48.0008 13.6V3C48.0008 1.9 47.2008 1 46.0008 1H38.7008C30.8008 1 25.3008 6.6 25.3008 14.9V23.6V25.6H23.3008H16.5008C15.1008 25.6 13.8008 26.7 13.8008 28.3V35.5C13.8008 36.9 14.9008 38.2 16.5008 38.2H23.1008H25.1008V40.2V60.3C25.1008 61.7 26.2008 63 27.8008 63H37.2008C37.8008 63 38.3008 62.7 38.7008 62.3C39.1008 61.9 39.4008 61.2 39.4008 60.6V40.3V38.3H41.5008H46.0008C47.3008 38.3 48.3008 37.5 48.5008 36.3V36.2V36.1L49.9008 29.2C50.0008 28.5 49.9008 27.7 49.3008 26.9C49.1008 26.4 48.2008 25.9 47.4008 25.8Z"/></svg>